<svg xmlns="http://www.w3.org/2000/svg" xmlns:xlink="http://www.w3.org/1999/xlink" width="375" viewBox="0 0 375 375" height="375" version="1.0"><defs><g id="c"><path d="M 15.125 -20.359375 L 18.453125 -20.359375 L 18.453125 0 L 15.125 0 L 15.125 -9 L 5.53125 -9 L 5.53125 0 L 2.203125 0 L 2.203125 -20.359375 L 5.53125 -20.359375 L 5.53125 -11.578125 L 15.125 -11.578125 Z M 15.125 -20.359375"/></g><g id="d"><path d="M 13.453125 -20.390625 L 13.453125 -17.78125 L 5.53125 -17.78125 L 5.53125 -11.609375 L 12.5625 -11.609375 L 12.5625 -9.03125 L 5.53125 -9.03125 L 5.53125 -2.609375 L 13.453125 -2.609375 L 13.453125 0 L 2.203125 0 L 2.203125 -20.390625 Z M 13.453125 -20.390625"/></g><g id="e"><path d="M 2.203125 -20.359375 L 5.53125 -20.359375 L 5.53125 -2.546875 L 12.421875 -2.546875 L 12.421875 0 L 2.203125 0 Z M 2.203125 -20.359375"/></g><g id="f"><path d="M 9.234375 -20.359375 C 11.535156 -20.359375 13.3125 -19.785156 14.5625 -18.640625 C 15.8125 -17.503906 16.4375 -16.082031 16.4375 -14.375 C 16.4375 -12.664062 15.84375 -11.21875 14.65625 -10.03125 C 13.476562 -8.851562 11.671875 -8.265625 9.234375 -8.265625 L 5.53125 -8.265625 L 5.53125 0 L 2.203125 0 L 2.203125 -20.359375 Z M 5.53125 -10.875 L 9.234375 -10.875 C 10.503906 -10.875 11.453125 -11.175781 12.078125 -11.78125 C 12.703125 -12.382812 13.015625 -13.226562 13.015625 -14.3125 C 13.015625 -15.394531 12.703125 -16.238281 12.078125 -16.84375 C 11.453125 -17.445312 10.503906 -17.75 9.234375 -17.75 L 5.53125 -17.75 Z M 5.53125 -10.875"/></g><g id="g"><path d="M 5.53125 -8.265625 L 5.53125 0 L 2.203125 0 L 2.203125 -20.359375 L 9.234375 -20.359375 C 11.535156 -20.359375 13.3125 -19.785156 14.5625 -18.640625 C 15.8125 -17.503906 16.4375 -16.054688 16.4375 -14.296875 C 16.4375 -12.929688 16.019531 -11.703125 15.1875 -10.609375 C 14.363281 -9.515625 13.09375 -8.800781 11.375 -8.46875 L 16.765625 0 L 12.6875 0 L 7.59375 -8.265625 Z M 5.53125 -17.75 L 5.53125 -10.875 L 9.234375 -10.875 C 10.503906 -10.875 11.453125 -11.175781 12.078125 -11.78125 C 12.703125 -12.382812 13.015625 -13.226562 13.015625 -14.3125 C 13.015625 -15.394531 12.703125 -16.238281 12.078125 -16.84375 C 11.453125 -17.445312 10.503906 -17.75 9.234375 -17.75 Z M 5.53125 -17.75"/></g><g id="h"><path d="M 7.734375 -10.515625 L 10.296875 -10.515625 L 10.296875 0 L 7.734375 0 L 7.734375 -4.359375 L 3.6875 -4.359375 L 3.6875 0 L 1.125 0 L 1.125 -10.515625 L 3.6875 -10.515625 L 3.6875 -6.296875 L 7.734375 -6.296875 Z M 7.734375 -10.515625"/></g><g id="i"><path d="M 1.078125 -4.234375 L 1.078125 -10.515625 L 3.640625 -10.515625 L 3.640625 -4.234375 C 3.640625 -3.609375 3.789062 -3.125 4.09375 -2.78125 C 4.40625 -2.445312 4.859375 -2.28125 5.453125 -2.28125 C 6.054688 -2.28125 6.515625 -2.445312 6.828125 -2.78125 C 7.148438 -3.125 7.3125 -3.609375 7.3125 -4.234375 L 7.3125 -10.515625 L 9.875 -10.515625 L 9.875 -4.234375 C 9.875 -3.304688 9.65625 -2.503906 9.21875 -1.828125 C 8.789062 -1.160156 8.242188 -0.671875 7.578125 -0.359375 C 6.921875 -0.046875 6.203125 0.109375 5.421875 0.109375 C 4.203125 0.109375 3.171875 -0.269531 2.328125 -1.03125 C 1.492188 -1.789062 1.078125 -2.859375 1.078125 -4.234375 Z M 1.078125 -4.234375"/></g><g id="j"><path d="M 1.125 -10.515625 L 5.6875 -10.515625 C 6.757812 -10.515625 7.609375 -10.253906 8.234375 -9.734375 C 8.867188 -9.210938 9.1875 -8.550781 9.1875 -7.75 C 9.1875 -6.5625 8.492188 -5.757812 7.109375 -5.34375 C 7.816406 -5.238281 8.378906 -4.941406 8.796875 -4.453125 C 9.222656 -3.972656 9.4375 -3.398438 9.4375 -2.734375 C 9.4375 -1.898438 9.128906 -1.234375 8.515625 -0.734375 C 7.898438 -0.242188 7.039062 0 5.9375 0 L 1.125 0 Z M 3.6875 -8.5625 L 3.6875 -6.28125 L 5.359375 -6.28125 C 5.722656 -6.28125 6.019531 -6.375 6.25 -6.5625 C 6.476562 -6.757812 6.59375 -7.046875 6.59375 -7.421875 C 6.59375 -7.796875 6.476562 -8.078125 6.25 -8.265625 C 6.019531 -8.460938 5.722656 -8.5625 5.359375 -8.5625 Z M 3.6875 -1.953125 L 5.609375 -1.953125 C 5.960938 -1.953125 6.253906 -2.054688 6.484375 -2.265625 C 6.710938 -2.472656 6.828125 -2.757812 6.828125 -3.125 C 6.828125 -3.5 6.71875 -3.796875 6.5 -4.015625 C 6.28125 -4.234375 5.992188 -4.34375 5.640625 -4.34375 L 3.6875 -4.34375 Z M 3.6875 -1.953125"/></g><clipPath id="a"><path d="M 149.183594 102.683594 L 225.683594 102.683594 L 225.683594 195 L 149.183594 195 Z M 149.183594 102.683594"/></clipPath><clipPath id="b"><path d="M 149.183594 192 L 224 192 L 224 211.433594 L 149.183594 211.433594 Z M 149.183594 192"/></clipPath></defs><g clip-path="url(#a)"><path fill="#E4C385" d="M 225.523438 154.269531 L 211.476562 128.207031 L 218.765625 121.15625 C 218.941406 120.988281 219.0625 120.785156 219.125 120.546875 C 219.1875 120.3125 219.183594 120.074219 219.117188 119.839844 C 219.050781 119.605469 218.925781 119.40625 218.746094 119.238281 C 218.566406 119.074219 218.359375 118.964844 218.121094 118.914062 C 207.308594 116.652344 197.058594 117.386719 188.128906 120.925781 L 193.355469 106.316406 C 197.230469 105.597656 201.140625 105.273438 205.082031 105.34375 L 201.058594 113.667969 L 203.4375 114.816406 L 208.34375 104.660156 C 208.390625 104.5625 208.425781 104.460938 208.449219 104.351562 C 208.46875 104.246094 208.480469 104.136719 208.472656 104.027344 C 208.46875 103.917969 208.453125 103.8125 208.421875 103.707031 C 208.390625 103.601562 208.34375 103.503906 208.289062 103.410156 C 208.234375 103.316406 208.167969 103.230469 208.089844 103.152344 C 208.011719 103.074219 207.925781 103.007812 207.835938 102.953125 C 207.742188 102.898438 207.640625 102.851562 207.535156 102.820312 C 207.433594 102.789062 207.324219 102.769531 207.214844 102.765625 C 183.402344 101.660156 163.542969 113.417969 154.109375 134.21875 C 146.195312 151.667969 147.941406 170.746094 158.453125 181.695312 C 158.648438 181.898438 158.886719 182.027344 159.164062 182.078125 C 159.445312 182.128906 159.710938 182.09375 159.96875 181.976562 C 160.222656 181.855469 160.421875 181.671875 160.558594 181.421875 C 160.695312 181.175781 160.75 180.910156 160.71875 180.628906 C 158.417969 160.476562 164.144531 142.496094 176.425781 131.300781 C 186.46875 122.144531 200.121094 118.539062 215.097656 121.03125 L 208.921875 127.003906 C 208.710938 127.210938 208.582031 127.460938 208.535156 127.753906 C 208.488281 128.042969 208.539062 128.320312 208.679688 128.582031 L 222.851562 154.871094 L 218.800781 161.871094 L 213.324219 161.40625 L 212.339844 157.964844 C 212.207031 157.492188 211.902344 157.1875 211.425781 157.058594 C 211.3125 157.023438 199.742188 153.734375 194.257812 147.832031 C 189.117188 142.300781 194.007812 131.070312 194.058594 130.957031 L 191.644531 129.882812 C 191.445312 130.332031 187.425781 139.539062 190.292969 146.449219 C 188.648438 147.671875 185.265625 150.570312 182.414062 155.519531 C 179.003906 161.429688 175.761719 171.480469 179.226562 186.148438 C 176.816406 186.332031 174.59375 186.605469 172.589844 186.921875 C 160.890625 188.765625 153.890625 192.398438 153.597656 192.554688 L 154.828125 194.890625 C 155.101562 194.746094 182.566406 180.679688 218.816406 194.949219 L 219.785156 192.492188 C 217.824219 191.722656 215.890625 191.035156 213.984375 190.417969 C 216.800781 179.238281 209.046875 173.664062 202.175781 168.726562 C 195.109375 163.648438 188.945312 159.214844 192.300781 149.601562 C 192.308594 149.613281 192.316406 149.621094 192.324219 149.632812 C 197.554688 155.257812 207.269531 158.546875 210.003906 159.390625 L 211.035156 163.007812 C 211.109375 163.269531 211.253906 163.488281 211.464844 163.664062 C 211.675781 163.835938 211.917969 163.9375 212.191406 163.960938 L 219.410156 164.574219 C 219.664062 164.597656 219.90625 164.550781 220.132812 164.429688 C 220.359375 164.3125 220.535156 164.144531 220.664062 163.921875 L 225.507812 155.558594 C 225.753906 155.132812 225.757812 154.703125 225.523438 154.269531 Z M 174.007812 114.222656 L 172.796875 131.136719 C 170.480469 133.496094 168.429688 136.066406 166.640625 138.84375 L 163.300781 124.171875 C 166.367188 120.316406 169.9375 117 174.007812 114.222656 Z M 156.515625 135.308594 C 157.835938 132.386719 159.40625 129.605469 161.226562 126.960938 L 164.6875 142.148438 C 163.015625 145.238281 161.648438 148.460938 160.589844 151.8125 L 153.980469 142.117188 C 154.667969 139.789062 155.511719 137.519531 156.515625 135.308594 Z M 153.101562 145.515625 L 159.644531 155.113281 C 158.746094 158.632812 158.144531 162.199219 157.84375 165.820312 L 152.023438 159.242188 C 151.71875 154.613281 152.078125 150.039062 153.101562 145.515625 Z M 152.613281 163.894531 L 157.617188 169.554688 C 157.542969 171.875 157.574219 174.230469 157.71875 176.628906 C 155.203125 172.992188 153.496094 168.640625 152.613281 163.894531 Z M 175.636719 128.476562 L 176.78125 112.460938 C 181.027344 109.976562 185.539062 108.148438 190.316406 106.976562 L 184.792969 122.40625 C 181.488281 124.042969 178.433594 126.066406 175.636719 128.476562 Z M 181.902344 185.988281 C 179.191406 174.871094 180.128906 164.855469 184.628906 156.964844 C 184.65625 156.917969 184.683594 156.871094 184.710938 156.824219 C 183.359375 164.566406 188.910156 171.042969 193.652344 176.578125 C 196.878906 180.335938 199.941406 183.914062 200.039062 187.054688 C 194.027344 186.082031 187.984375 185.726562 181.902344 185.988281 Z M 200.636719 170.871094 C 207.363281 175.703125 213.730469 180.28125 211.453125 189.640625 C 208.445312 188.757812 205.515625 188.058594 202.679688 187.519531 C 202.875 183.277344 199.359375 179.175781 195.660156 174.855469 C 190.070312 168.335938 184.320312 161.628906 188.789062 153.21875 C 187.988281 161.78125 194.632812 166.558594 200.636719 170.871094 Z M 200.636719 170.871094"/></g><g clip-path="url(#b)"><path fill="#E4C385" d="M 222.652344 200.933594 C 203.628906 191.371094 185.128906 191.878906 172.957031 193.988281 C 159.777344 196.269531 151.191406 200.757812 150.832031 200.949219 C 150.570312 201.085938 150.367188 201.28125 150.214844 201.53125 C 150.0625 201.785156 149.988281 202.058594 149.988281 202.351562 L 149.988281 209.832031 C 149.988281 210.042969 150.027344 210.246094 150.109375 210.441406 C 150.1875 210.632812 150.304688 210.804688 150.453125 210.953125 C 150.601562 211.101562 150.773438 211.21875 150.964844 211.296875 C 151.160156 211.378906 151.363281 211.417969 151.570312 211.417969 L 221.941406 211.417969 C 222.152344 211.417969 222.355469 211.378906 222.546875 211.296875 C 222.742188 211.21875 222.914062 211.101562 223.0625 210.953125 C 223.210938 210.804688 223.324219 210.632812 223.40625 210.441406 C 223.488281 210.246094 223.527344 210.042969 223.527344 209.832031 L 223.527344 202.351562 C 223.527344 202.050781 223.449219 201.773438 223.289062 201.519531 C 223.132812 201.261719 222.921875 201.070312 222.652344 200.933594 Z M 220.359375 208.25 L 153.15625 208.25 L 153.15625 203.339844 C 158.542969 200.804688 188.804688 187.984375 220.355469 203.335938 Z M 220.359375 208.25"/></g><g fill="#E4C385"><use x="137.344" y="248.453" xmlns:xlink="http://www.w3.org/1999/xlink" xlink:href="#c" xlink:type="simple" xlink:actuate="onLoad" xlink:show="embed"/></g><g fill="#E4C385"><use x="157.995" y="248.453" xmlns:xlink="http://www.w3.org/1999/xlink" xlink:href="#d" xlink:type="simple" xlink:actuate="onLoad" xlink:show="embed"/></g><g fill="#E4C385"><use x="173.345" y="248.453" xmlns:xlink="http://www.w3.org/1999/xlink" xlink:href="#e" xlink:type="simple" xlink:actuate="onLoad" xlink:show="embed"/></g><g fill="#E4C385"><use x="186.351" y="248.453" xmlns:xlink="http://www.w3.org/1999/xlink" xlink:href="#f" xlink:type="simple" xlink:actuate="onLoad" xlink:show="embed"/></g><g fill="#E4C385"><use x="203.78" y="248.453" xmlns:xlink="http://www.w3.org/1999/xlink" xlink:href="#d" xlink:type="simple" xlink:actuate="onLoad" xlink:show="embed"/></g><g fill="#E4C385"><use x="219.13" y="248.453" xmlns:xlink="http://www.w3.org/1999/xlink" xlink:href="#g" xlink:type="simple" xlink:actuate="onLoad" xlink:show="embed"/></g><g fill="#E4C385"><use x="164.064" y="267.426" xmlns:xlink="http://www.w3.org/1999/xlink" xlink:href="#h" xlink:type="simple" xlink:actuate="onLoad" xlink:show="embed"/></g><g fill="#E4C385"><use x="182.694" y="267.426" xmlns:xlink="http://www.w3.org/1999/xlink" xlink:href="#i" xlink:type="simple" xlink:actuate="onLoad" xlink:show="embed"/></g><g fill="#E4C385"><use x="200.845" y="267.426" xmlns:xlink="http://www.w3.org/1999/xlink" xlink:href="#j" xlink:type="simple" xlink:actuate="onLoad" xlink:show="embed"/></g></svg>